<svg width="1653" height="993" xmlns="http://www.w3.org/2000/svg" xmlns:xlink="http://www.w3.org/1999/xlink" overflow="hidden"><defs><clipPath id="clip0"><rect x="1674" y="619" width="1653" height="993"/></clipPath><clipPath id="clip1"><rect x="1675" y="619" width="1650" height="990"/></clipPath><clipPath id="clip2"><rect x="1675" y="619" width="1650" height="990"/></clipPath><clipPath id="clip3"><rect x="1785" y="670" width="1493" height="732"/></clipPath><clipPath id="clip4"><rect x="1785" y="670" width="1493" height="732"/></clipPath><clipPath id="clip5"><rect x="1675" y="619" width="1650" height="990"/></clipPath><clipPath id="clip6"><rect x="1675" y="619" width="1650" height="990"/></clipPath><clipPath id="clip7"><rect x="1675" y="619" width="1650" height="990"/></clipPath><clipPath id="clip8"><rect x="1675" y="619" width="1650" height="990"/></clipPath><clipPath id="clip9"><rect x="1675" y="619" width="1650" height="990"/></clipPath><clipPath id="clip10"><rect x="1675" y="619" width="1650" height="990"/></clipPath><clipPath id="clip11"><rect x="1675" y="619" width="1650" height="990"/></clipPath><clipPath id="clip12"><rect x="1675" y="619" width="1650" height="990"/></clipPath><clipPath id="clip13"><rect x="1675" y="619" width="1650" height="990"/></clipPath><clipPath id="clip14"><rect x="1675" y="619" width="1650" height="990"/></clipPath><clipPath id="clip15"><rect x="1675" y="619" width="1650" height="990"/></clipPath><clipPath id="clip16"><rect x="1675" y="619" width="1650" height="990"/></clipPath><clipPath id="clip17"><rect x="1675" y="619" width="1650" height="990"/></clipPath><clipPath id="clip18"><rect x="1675" y="619" width="1650" height="990"/></clipPath><clipPath id="clip19"><rect x="1675" y="619" width="1650" height="990"/></clipPath><clipPath id="clip20"><rect x="1675" y="619" width="1650" height="990"/></clipPath><clipPath id="clip21"><rect x="1675" y="619" width="1650" height="990"/></clipPath><clipPath id="clip22"><rect x="1675" y="619" width="1650" height="990"/></clipPath><clipPath id="clip23"><rect x="1675" y="619" width="1650" height="990"/></clipPath><clipPath id="clip24"><rect x="1675" y="619" width="1650" height="990"/></clipPath><clipPath id="clip25"><rect x="1675" y="619" width="1650" height="990"/></clipPath></defs><g clip-path="url(#clip0)" transform="translate(-1674 -619)"><rect x="1675" y="620" width="1650" height="990" fill="#FFFFFF"/><g clip-path="url(#clip1)"><path d="M1785.5 1317.54 3274.5 1317.54M1785.5 1236.54 3274.5 1236.54M1785.5 1155.54 3274.5 1155.54M1785.5 1074.54 3274.5 1074.54M1785.5 994.533 3274.5 994.533M1785.5 913.53 3274.5 913.53M1785.5 832.528 3274.5 832.528M1785.5 751.525 3274.5 751.525M1785.5 670.5 3274.5 670.5" stroke="#D9D9D9" stroke-width="3.4375" stroke-linejoin="round" stroke-miterlimit="10" fill="none"/></g><g clip-path="url(#clip2)"><path d="M1785.5 1398.5 3274.5 1398.5" stroke="#D9D9D9" stroke-width="3.4375" stroke-linejoin="round" stroke-miterlimit="10" fill="none" fill-rule="evenodd"/></g><g clip-path="url(#clip3)"><path d="M1891 1277.04 2104.07 1237.04 2317.08 1196.04 2530.08 1115 2743.09 1237.04 2955.1 1277.04 3168 1318" stroke="#4472C4" stroke-width="10.3125" stroke-linecap="round" stroke-linejoin="round" stroke-miterlimit="10" fill="none"/></g><g clip-path="url(#clip4)"><path d="M1891 751 2104.07 792.026 2317.08 792.026 2530.08 954.031 2743.09 913.03 2955.1 994 3168 954.031" stroke="#ED7D31" stroke-width="10.3125" stroke-linecap="round" stroke-linejoin="round" stroke-miterlimit="10" fill="none"/></g><g clip-path="url(#clip5)"><text fill="#595959" font-family="Calibri,Calibri_MSFontService,sans-serif" font-weight="400" font-size="41" transform="matrix(1 0 0 1 1725.9 1410)">0</text></g><g clip-path="url(#clip6)"><text fill="#595959" font-family="Calibri,Calibri_MSFontService,sans-serif" font-weight="400" font-size="41" transform="matrix(1 0 0 1 1725.9 1329)">2</text></g><g clip-path="url(#clip7)"><text fill="#595959" font-family="Calibri,Calibri_MSFontService,sans-serif" font-weight="400" font-size="41" transform="matrix(1 0 0 1 1725.9 1248)">4</text></g><g clip-path="url(#clip8)"><text fill="#595959" font-family="Calibri,Calibri_MSFontService,sans-serif" font-weight="400" font-size="41" transform="matrix(1 0 0 1 1725.9 1167)">6</text></g><g clip-path="url(#clip9)"><text fill="#595959" font-family="Calibri,Calibri_MSFontService,sans-serif" font-weight="400" font-size="41" transform="matrix(1 0 0 1 1725.9 1087)">8</text></g><g clip-path="url(#clip10)"><text fill="#595959" font-family="Calibri,Calibri_MSFontService,sans-serif" font-weight="400" font-size="41" transform="matrix(1 0 0 1 1705 1006)">10</text></g><g clip-path="url(#clip11)"><text fill="#595959" font-family="Calibri,Calibri_MSFontService,sans-serif" font-weight="400" font-size="41" transform="matrix(1 0 0 1 1705 925)">12</text></g><g clip-path="url(#clip12)"><text fill="#595959" font-family="Calibri,Calibri_MSFontService,sans-serif" font-weight="400" font-size="41" transform="matrix(1 0 0 1 1705 844)">14</text></g><g clip-path="url(#clip13)"><text fill="#595959" font-family="Calibri,Calibri_MSFontService,sans-serif" font-weight="400" font-size="41" transform="matrix(1 0 0 1 1705 763)">16</text></g><g clip-path="url(#clip14)"><text fill="#595959" font-family="Calibri,Calibri_MSFontService,sans-serif" font-weight="400" font-size="41" transform="matrix(1 0 0 1 1705 682)">18</text></g><g clip-path="url(#clip15)"><text fill="#595959" font-family="Calibri,Calibri_MSFontService,sans-serif" font-weight="400" font-size="41" transform="matrix(1 0 0 1 1881.03 1464)">3</text></g><g clip-path="url(#clip16)"><text fill="#595959" font-family="Calibri,Calibri_MSFontService,sans-serif" font-weight="400" font-size="41" transform="matrix(1 0 0 1 2093.84 1464)">4</text></g><g clip-path="url(#clip17)"><text fill="#595959" font-family="Calibri,Calibri_MSFontService,sans-serif" font-weight="400" font-size="41" transform="matrix(1 0 0 1 2306.66 1464)">5</text></g><g clip-path="url(#clip18)"><text fill="#595959" font-family="Calibri,Calibri_MSFontService,sans-serif" font-weight="400" font-size="41" transform="matrix(1 0 0 1 2519.48 1464)">6</text></g><g clip-path="url(#clip19)"><text fill="#595959" font-family="Calibri,Calibri_MSFontService,sans-serif" font-weight="400" font-size="41" transform="matrix(1 0 0 1 2732.3 1464)">7</text></g><g clip-path="url(#clip20)"><text fill="#595959" font-family="Calibri,Calibri_MSFontService,sans-serif" font-weight="400" font-size="41" transform="matrix(1 0 0 1 2945.11 1464)">8</text></g><g clip-path="url(#clip21)"><text fill="#595959" font-family="Calibri,Calibri_MSFontService,sans-serif" font-weight="400" font-size="41" transform="matrix(1 0 0 1 3157.93 1464)">9</text></g><g clip-path="url(#clip22)"><path d="M2309 1544 2397 1544" stroke="#4472C4" stroke-width="10.3125" stroke-linecap="round" stroke-linejoin="round" stroke-miterlimit="10" fill="none" fill-rule="evenodd"/></g><g clip-path="url(#clip23)"><text fill="#595959" font-family="Yu Gothic,Yu Gothic_MSFontService,sans-serif" font-weight="400" font-size="41" transform="matrix(1 0 0 1 2406.59 1556)">最低</text></g><g clip-path="url(#clip24)"><path d="M2527 1544 2615 1544" stroke="#ED7D31" stroke-width="10.3125" stroke-linecap="round" stroke-linejoin="round" stroke-miterlimit="10" fill="none" fill-rule="evenodd"/></g><g clip-path="url(#clip25)"><text fill="#595959" font-family="Yu Gothic,Yu Gothic_MSFontService,sans-serif" font-weight="400" font-size="41" transform="matrix(1 0 0 1 2624.76 1556)">最高</text></g><rect x="1675.5" y="620.5" width="1650" height="990" stroke="#D9D9D9" stroke-width="3.4375" stroke-linejoin="round" stroke-miterlimit="10" fill="none"/></g></svg>